<?xml version="1.0" encoding="utf-8"?>
<!-- Generator: Adobe Illustrator 21.0.0, SVG Export Plug-In . SVG Version: 6.00 Build 0)  -->
<svg version="1.1" id="图层_1" xmlns="http://www.w3.org/2000/svg" xmlns:xlink="http://www.w3.org/1999/xlink" x="0px" y="0px"
	 viewBox="0 0 400 400" style="enable-background:new 0 0 400 400;" xml:space="preserve">
<style type="text/css">
	.st0{stroke:#FFFFFF;stroke-miterlimit:10;}
</style>
<rect class="st0" width="20" height="20"/>
<rect x="20" class="st0" width="20" height="20"/>
<path id="end" class="st0" d="M50,20L50,20c-5.5,0-10-4.5-10-10l0,0c0-5.5,4.5-10,10-10l0,0c5.5,0,10,4.5,10,10l0,0
	C60,15.5,55.5,20,50,20z"/>
<rect x="60" class="st0" width="20" height="20"/>
<rect x="80" class="st0" width="20" height="20"/>
<rect x="100" class="st0" width="20" height="20"/>
<rect x="120" class="st0" width="20" height="20"/>
<rect x="140" class="st0" width="20" height="20"/>
<rect x="160" class="st0" width="20" height="20"/>
<rect x="180" class="st0" width="20" height="20"/>
<rect x="200" class="st0" width="20" height="20"/>
<rect x="220" class="st0" width="20" height="20"/>
<rect x="240" class="st0" width="20" height="20"/>
<rect x="260" class="st0" width="20" height="20"/>
<rect x="280" class="st0" width="20" height="20"/>
<rect x="300" class="st0" width="20" height="20"/>
<rect x="320" class="st0" width="20" height="20"/>
<rect x="340" class="st0" width="20" height="20"/>
<rect x="360" class="st0" width="20" height="20"/>
<rect x="380" class="st0" width="20" height="20"/>
<rect y="20" class="st0" width="20" height="20"/>
<rect x="20" y="20" class="st0" width="20" height="20"/>
<path class="st0" d="M50,40L50,40c-5.5,0-10-4.5-10-10l0,0c0-5.5,4.5-10,10-10l0,0c5.5,0,10,4.5,10,10l0,0C60,35.5,55.5,40,50,40z"
	/>
<rect x="60" y="20" class="st0" width="20" height="20"/>
<path class="st0" d="M90,40L90,40c-5.5,0-10-4.5-10-10l0,0c0-5.5,4.5-10,10-10l0,0c5.5,0,10,4.5,10,10l0,0C100,35.5,95.5,40,90,40z"
	/>
<path class="st0" d="M110,40L110,40c-5.5,0-10-4.5-10-10l0,0c0-5.5,4.5-10,10-10l0,0c5.5,0,10,4.5,10,10l0,0
	C120,35.5,115.5,40,110,40z"/>
<path class="st0" d="M130,40L130,40c-5.5,0-10-4.5-10-10l0,0c0-5.5,4.5-10,10-10l0,0c5.5,0,10,4.5,10,10l0,0
	C140,35.5,135.5,40,130,40z"/>
<rect x="140" y="20" class="st0" width="20" height="20"/>
<rect x="160" y="20" class="st0" width="20" height="20"/>
<rect x="180" y="20" class="st0" width="20" height="20"/>
<path class="st0" d="M210,40L210,40c-5.5,0-10-4.5-10-10l0,0c0-5.5,4.5-10,10-10l0,0c5.5,0,10,4.5,10,10l0,0
	C220,35.5,215.5,40,210,40z"/>
<path class="st0" d="M230,40L230,40c-5.5,0-10-4.5-10-10l0,0c0-5.5,4.5-10,10-10l0,0c5.5,0,10,4.5,10,10l0,0
	C240,35.5,235.5,40,230,40z"/>
<path class="st0" d="M250,40L250,40c-5.5,0-10-4.5-10-10l0,0c0-5.5,4.5-10,10-10l0,0c5.5,0,10,4.5,10,10l0,0
	C260,35.5,255.5,40,250,40z"/>
<rect x="260" y="20" class="st0" width="20" height="20"/>
<path class="st0" d="M290,40L290,40c-5.5,0-10-4.5-10-10l0,0c0-5.5,4.5-10,10-10l0,0c5.5,0,10,4.5,10,10l0,0
	C300,35.5,295.5,40,290,40z"/>
<path class="st0" d="M310,40L310,40c-5.5,0-10-4.5-10-10l0,0c0-5.5,4.5-10,10-10l0,0c5.5,0,10,4.5,10,10l0,0
	C320,35.5,315.5,40,310,40z"/>
<path class="st0" d="M330,40L330,40c-5.5,0-10-4.5-10-10l0,0c0-5.5,4.5-10,10-10l0,0c5.5,0,10,4.5,10,10l0,0
	C340,35.5,335.5,40,330,40z"/>
<path class="st0" d="M350,40L350,40c-5.5,0-10-4.5-10-10l0,0c0-5.5,4.5-10,10-10l0,0c5.5,0,10,4.5,10,10l0,0
	C360,35.5,355.5,40,350,40z"/>
<rect x="360" y="20" class="st0" width="20" height="20"/>
<rect x="380" y="20" class="st0" width="20" height="20"/>
<rect y="40" class="st0" width="20" height="20"/>
<rect x="20" y="40" class="st0" width="20" height="20"/>
<path class="st0" d="M50,60L50,60c-5.5,0-10-4.5-10-10l0,0c0-5.5,4.5-10,10-10l0,0c5.5,0,10,4.5,10,10l0,0C60,55.5,55.5,60,50,60z"
	/>
<path class="st0" d="M70,60L70,60c-5.5,0-10-4.5-10-10l0,0c0-5.5,4.5-10,10-10l0,0c5.5,0,10,4.5,10,10l0,0C80,55.5,75.5,60,70,60z"
	/>
<path class="st0" d="M90,60L90,60c-5.5,0-10-4.5-10-10l0,0c0-5.5,4.5-10,10-10l0,0c5.5,0,10,4.5,10,10l0,0C100,55.5,95.5,60,90,60z"
	/>
<rect x="100" y="40" class="st0" width="20" height="20"/>
<path class="st0" d="M130,60L130,60c-5.5,0-10-4.5-10-10l0,0c0-5.5,4.5-10,10-10l0,0c5.5,0,10,4.5,10,10l0,0
	C140,55.5,135.5,60,130,60z"/>
<rect x="140" y="40" class="st0" width="20" height="20"/>
<rect x="160" y="40" class="st0" width="20" height="20"/>
<rect x="180" y="40" class="st0" width="20" height="20"/>
<path class="st0" d="M210,60L210,60c-5.5,0-10-4.5-10-10l0,0c0-5.5,4.5-10,10-10l0,0c5.5,0,10,4.5,10,10l0,0
	C220,55.5,215.5,60,210,60z"/>
<rect x="220" y="40" class="st0" width="20" height="20"/>
<path class="st0" d="M250,60L250,60c-5.5,0-10-4.5-10-10l0,0c0-5.5,4.5-10,10-10l0,0c5.5,0,10,4.5,10,10l0,0
	C260,55.5,255.5,60,250,60z"/>
<rect x="260" y="40" class="st0" width="20" height="20"/>
<path class="st0" d="M290,60L290,60c-5.5,0-10-4.5-10-10l0,0c0-5.5,4.5-10,10-10l0,0c5.5,0,10,4.5,10,10l0,0
	C300,55.5,295.5,60,290,60z"/>
<rect x="300" y="40" class="st0" width="20" height="20"/>
<rect x="320" y="40" class="st0" width="20" height="20"/>
<path class="st0" d="M350,60L350,60c-5.5,0-10-4.5-10-10l0,0c0-5.5,4.5-10,10-10l0,0c5.5,0,10,4.5,10,10l0,0
	C360,55.5,355.5,60,350,60z"/>
<rect x="360" y="40" class="st0" width="20" height="20"/>
<rect x="380" y="40" class="st0" width="20" height="20"/>
<rect y="60" class="st0" width="20" height="20"/>
<rect x="20" y="60" class="st0" width="20" height="20"/>
<rect x="40" y="60" class="st0" width="20" height="20"/>
<rect x="60" y="60" class="st0" width="20" height="20"/>
<rect x="80" y="60" class="st0" width="20" height="20"/>
<rect x="100" y="60" class="st0" width="20" height="20"/>
<path class="st0" d="M130,80L130,80c-5.5,0-10-4.5-10-10l0,0c0-5.5,4.5-10,10-10l0,0c5.5,0,10,4.5,10,10l0,0
	C140,75.5,135.5,80,130,80z"/>
<path class="st0" d="M150,80L150,80c-5.5,0-10-4.5-10-10l0,0c0-5.5,4.5-10,10-10l0,0c5.5,0,10,4.5,10,10l0,0
	C160,75.5,155.5,80,150,80z"/>
<path class="st0" d="M170,80L170,80c-5.5,0-10-4.5-10-10l0,0c0-5.5,4.5-10,10-10l0,0c5.5,0,10,4.5,10,10l0,0
	C180,75.5,175.5,80,170,80z"/>
<rect x="180" y="60" class="st0" width="20" height="20"/>
<path class="st0" d="M210,80L210,80c-5.5,0-10-4.5-10-10l0,0c0-5.5,4.5-10,10-10l0,0c5.5,0,10,4.5,10,10l0,0
	C220,75.5,215.5,80,210,80z"/>
<rect x="220" y="60" class="st0" width="20" height="20"/>
<path class="st0" d="M250,80L250,80c-5.5,0-10-4.5-10-10l0,0c0-5.5,4.5-10,10-10l0,0c5.5,0,10,4.5,10,10l0,0
	C260,75.5,255.5,80,250,80z"/>
<rect x="260" y="60" class="st0" width="20" height="20"/>
<path class="st0" d="M290,80L290,80c-5.5,0-10-4.5-10-10l0,0c0-5.5,4.5-10,10-10l0,0c5.5,0,10,4.5,10,10l0,0
	C300,75.5,295.5,80,290,80z"/>
<rect x="300" y="60" class="st0" width="20" height="20"/>
<path class="st0" d="M330,80L330,80c-5.5,0-10-4.5-10-10l0,0c0-5.5,4.5-10,10-10l0,0c5.5,0,10,4.5,10,10l0,0
	C340,75.5,335.5,80,330,80z"/>
<path class="st0" d="M350,80L350,80c-5.5,0-10-4.5-10-10l0,0c0-5.5,4.5-10,10-10l0,0c5.5,0,10,4.5,10,10l0,0
	C360,75.5,355.5,80,350,80z"/>
<rect x="360" y="60" class="st0" width="20" height="20"/>
<rect x="380" y="60" class="st0" width="20" height="20"/>
<rect y="80" class="st0" width="20" height="20"/>
<path class="st0" d="M30,100L30,100c-5.5,0-10-4.5-10-10l0,0c0-5.5,4.5-10,10-10l0,0c5.5,0,10,4.5,10,10l0,0
	C40,95.5,35.5,100,30,100z"/>
<path class="st0" d="M50,100L50,100c-5.5,0-10-4.5-10-10l0,0c0-5.5,4.5-10,10-10l0,0c5.5,0,10,4.5,10,10l0,0
	C60,95.5,55.5,100,50,100z"/>
<path class="st0" d="M70,100L70,100c-5.5,0-10-4.5-10-10l0,0c0-5.5,4.5-10,10-10l0,0c5.5,0,10,4.5,10,10l0,0
	C80,95.5,75.5,100,70,100z"/>
<path class="st0" d="M90,100L90,100c-5.5,0-10-4.5-10-10l0,0c0-5.5,4.5-10,10-10l0,0c5.5,0,10,4.5,10,10l0,0
	C100,95.5,95.5,100,90,100z"/>
<rect x="100" y="80" class="st0" width="20" height="20"/>
<rect x="120" y="80" class="st0" width="20" height="20"/>
<rect x="140" y="80" class="st0" width="20" height="20"/>
<path class="st0" d="M170,100L170,100c-5.5,0-10-4.5-10-10l0,0c0-5.5,4.5-10,10-10l0,0c5.5,0,10,4.5,10,10l0,0
	C180,95.5,175.5,100,170,100z"/>
<path class="st0" d="M190,100L190,100c-5.5,0-10-4.5-10-10l0,0c0-5.5,4.5-10,10-10l0,0c5.5,0,10,4.5,10,10l0,0
	C200,95.5,195.5,100,190,100z"/>
<path class="st0" d="M210,100L210,100c-5.5,0-10-4.5-10-10l0,0c0-5.5,4.5-10,10-10l0,0c5.5,0,10,4.5,10,10l0,0
	C220,95.5,215.5,100,210,100z"/>
<rect x="220" y="80" class="st0" width="20" height="20"/>
<path class="st0" d="M250,100L250,100c-5.5,0-10-4.5-10-10l0,0c0-5.5,4.5-10,10-10l0,0c5.5,0,10,4.5,10,10l0,0
	C260,95.5,255.5,100,250,100z"/>
<rect x="260" y="80" class="st0" width="20" height="20"/>
<path class="st0" d="M290,100L290,100c-5.5,0-10-4.5-10-10l0,0c0-5.5,4.5-10,10-10l0,0c5.5,0,10,4.5,10,10l0,0
	C300,95.5,295.5,100,290,100z"/>
<rect x="300" y="80" class="st0" width="20" height="20"/>
<path class="st0" d="M330,100L330,100c-5.5,0-10-4.5-10-10l0,0c0-5.5,4.5-10,10-10l0,0c5.5,0,10,4.5,10,10l0,0
	C340,95.5,335.5,100,330,100z"/>
<rect x="340" y="80" class="st0" width="20" height="20"/>
<rect x="360" y="80" class="st0" width="20" height="20"/>
<rect x="380" y="80" class="st0" width="20" height="20"/>
<rect y="100" class="st0" width="20" height="20"/>
<path class="st0" d="M30,120L30,120c-5.5,0-10-4.5-10-10l0,0c0-5.5,4.5-10,10-10l0,0c5.5,0,10,4.5,10,10l0,0
	C40,115.5,35.5,120,30,120z"/>
<rect x="40" y="100" class="st0" width="20" height="20"/>
<rect x="60" y="100" class="st0" width="20" height="20"/>
<path class="st0" d="M90,120L90,120c-5.5,0-10-4.5-10-10l0,0c0-5.5,4.5-10,10-10l0,0c5.5,0,10,4.5,10,10l0,0
	C100,115.5,95.5,120,90,120z"/>
<path class="st0" d="M110,120L110,120c-5.5,0-10-4.5-10-10l0,0c0-5.5,4.5-10,10-10l0,0c5.5,0,10,4.5,10,10l0,0
	C120,115.5,115.5,120,110,120z"/>
<path class="st0" d="M130,120L130,120c-5.5,0-10-4.5-10-10l0,0c0-5.5,4.5-10,10-10l0,0c5.5,0,10,4.5,10,10l0,0
	C140,115.5,135.5,120,130,120z"/>
<rect x="140" y="100" class="st0" width="20" height="20"/>
<rect x="160" y="100" class="st0" width="20" height="20"/>
<rect x="180" y="100" class="st0" width="20" height="20"/>
<rect x="200" y="100" class="st0" width="20" height="20"/>
<rect x="220" y="100" class="st0" width="20" height="20"/>
<path class="st0" d="M250,120L250,120c-5.5,0-10-4.5-10-10l0,0c0-5.5,4.5-10,10-10l0,0c5.5,0,10,4.5,10,10l0,0
	C260,115.5,255.5,120,250,120z"/>
<rect x="260" y="100" class="st0" width="20" height="20"/>
<path class="st0" d="M290,120L290,120c-5.5,0-10-4.5-10-10l0,0c0-5.5,4.5-10,10-10l0,0c5.5,0,10,4.5,10,10l0,0
	C300,115.5,295.5,120,290,120z"/>
<rect x="300" y="100" class="st0" width="20" height="20"/>
<path class="st0" d="M330,120L330,120c-5.5,0-10-4.5-10-10l0,0c0-5.5,4.5-10,10-10l0,0c5.5,0,10,4.5,10,10l0,0
	C340,115.5,335.5,120,330,120z"/>
<path class="st0" d="M350,120L350,120c-5.5,0-10-4.5-10-10l0,0c0-5.5,4.5-10,10-10l0,0c5.5,0,10,4.5,10,10l0,0
	C360,115.5,355.5,120,350,120z"/>
<path class="st0" d="M370,120L370,120c-5.5,0-10-4.5-10-10l0,0c0-5.5,4.5-10,10-10l0,0c5.5,0,10,4.5,10,10l0,0
	C380,115.5,375.5,120,370,120z"/>
<rect x="380" y="100" class="st0" width="20" height="20"/>
<rect y="120" class="st0" width="20" height="20"/>
<path class="st0" d="M30,140L30,140c-5.5,0-10-4.5-10-10l0,0c0-5.5,4.5-10,10-10l0,0c5.5,0,10,4.5,10,10l0,0
	C40,135.5,35.5,140,30,140z"/>
<path class="st0" d="M50,140L50,140c-5.5,0-10-4.5-10-10l0,0c0-5.5,4.5-10,10-10l0,0c5.5,0,10,4.5,10,10l0,0
	C60,135.5,55.5,140,50,140z"/>
<rect x="60" y="120" class="st0" width="20" height="20"/>
<rect x="80" y="120" class="st0" width="20" height="20"/>
<rect x="100" y="120" class="st0" width="20" height="20"/>
<path class="st0" d="M130,140L130,140c-5.5,0-10-4.5-10-10l0,0c0-5.5,4.5-10,10-10l0,0c5.5,0,10,4.5,10,10l0,0
	C140,135.5,135.5,140,130,140z"/>
<path class="st0" d="M150,140L150,140c-5.5,0-10-4.5-10-10l0,0c0-5.5,4.5-10,10-10l0,0c5.5,0,10,4.5,10,10l0,0
	C160,135.5,155.5,140,150,140z"/>
<path class="st0" d="M170,140L170,140c-5.5,0-10-4.5-10-10l0,0c0-5.5,4.5-10,10-10l0,0c5.5,0,10,4.5,10,10l0,0
	C180,135.5,175.5,140,170,140z"/>
<path class="st0" d="M190,140L190,140c-5.5,0-10-4.5-10-10l0,0c0-5.5,4.5-10,10-10l0,0c5.5,0,10,4.5,10,10l0,0
	C200,135.5,195.5,140,190,140z"/>
<path class="st0" d="M210,140L210,140c-5.5,0-10-4.5-10-10l0,0c0-5.5,4.5-10,10-10l0,0c5.5,0,10,4.5,10,10l0,0
	C220,135.5,215.5,140,210,140z"/>
<path class="st0" d="M230,140L230,140c-5.5,0-10-4.5-10-10l0,0c0-5.5,4.5-10,10-10l0,0c5.5,0,10,4.5,10,10l0,0
	C240,135.5,235.5,140,230,140z"/>
<path class="st0" d="M250,140L250,140c-5.5,0-10-4.5-10-10l0,0c0-5.5,4.5-10,10-10l0,0c5.5,0,10,4.5,10,10l0,0
	C260,135.5,255.5,140,250,140z"/>
<rect x="260" y="120" class="st0" width="20" height="20"/>
<path class="st0" d="M290,140L290,140c-5.5,0-10-4.5-10-10l0,0c0-5.5,4.5-10,10-10l0,0c5.5,0,10,4.5,10,10l0,0
	C300,135.5,295.5,140,290,140z"/>
<rect x="300" y="120" class="st0" width="20" height="20"/>
<rect x="320" y="120" class="st0" width="20" height="20"/>
<rect x="340" y="120" class="st0" width="20" height="20"/>
<path class="st0" d="M370,140L370,140c-5.5,0-10-4.5-10-10l0,0c0-5.5,4.5-10,10-10l0,0c5.5,0,10,4.5,10,10l0,0
	C380,135.5,375.5,140,370,140z"/>
<rect x="380" y="120" class="st0" width="20" height="20"/>
<rect y="140" class="st0" width="20" height="20"/>
<rect x="20" y="140" class="st0" width="20" height="20"/>
<path class="st0" d="M50,160L50,160c-5.5,0-10-4.5-10-10l0,0c0-5.5,4.5-10,10-10l0,0c5.5,0,10,4.5,10,10l0,0
	C60,155.5,55.5,160,50,160z"/>
<path class="st0" d="M70,160L70,160c-5.5,0-10-4.5-10-10l0,0c0-5.5,4.5-10,10-10l0,0c5.5,0,10,4.5,10,10l0,0
	C80,155.5,75.5,160,70,160z"/>
<path class="st0" d="M90,160L90,160c-5.5,0-10-4.5-10-10l0,0c0-5.5,4.5-10,10-10l0,0c5.5,0,10,4.5,10,10l0,0
	C100,155.5,95.5,160,90,160z"/>
<rect x="100" y="140" class="st0" width="20" height="20"/>
<rect x="120" y="140" class="st0" width="20" height="20"/>
<rect x="140" y="140" class="st0" width="20" height="20"/>
<rect x="160" y="140" class="st0" width="20" height="20"/>
<rect x="180" y="140" class="st0" width="20" height="20"/>
<rect x="200" y="140" class="st0" width="20" height="20"/>
<rect x="220" y="140" class="st0" width="20" height="20"/>
<rect x="240" y="140" class="st0" width="20" height="20"/>
<rect x="260" y="140" class="st0" width="20" height="20"/>
<path class="st0" d="M290,160L290,160c-5.5,0-10-4.5-10-10l0,0c0-5.5,4.5-10,10-10l0,0c5.5,0,10,4.5,10,10l0,0
	C300,155.5,295.5,160,290,160z"/>
<rect x="300" y="140" class="st0" width="20" height="20"/>
<path class="st0" d="M330,160L330,160c-5.5,0-10-4.5-10-10l0,0c0-5.5,4.5-10,10-10l0,0c5.5,0,10,4.5,10,10l0,0
	C340,155.5,335.5,160,330,160z"/>
<path class="st0" d="M350,160L350,160c-5.5,0-10-4.5-10-10l0,0c0-5.5,4.5-10,10-10l0,0c5.5,0,10,4.5,10,10l0,0
	C360,155.5,355.5,160,350,160z"/>
<path class="st0" d="M370,160L370,160c-5.5,0-10-4.5-10-10l0,0c0-5.5,4.5-10,10-10l0,0c5.5,0,10,4.5,10,10l0,0
	C380,155.5,375.5,160,370,160z"/>
<rect x="380" y="140" class="st0" width="20" height="20"/>
<rect y="160" class="st0" width="20" height="20"/>
<rect x="20" y="160" class="st0" width="20" height="20"/>
<rect x="40" y="160" class="st0" width="20" height="20"/>
<rect x="60" y="160" class="st0" width="20" height="20"/>
<path class="st0" d="M90,180L90,180c-5.5,0-10-4.5-10-10l0,0c0-5.5,4.5-10,10-10l0,0c5.5,0,10,4.5,10,10l0,0
	C100,175.5,95.5,180,90,180z"/>
<rect x="100" y="160" class="st0" width="20" height="20"/>
<path class="st0" d="M130,180L130,180c-5.5,0-10-4.5-10-10l0,0c0-5.5,4.5-10,10-10l0,0c5.5,0,10,4.5,10,10l0,0
	C140,175.5,135.5,180,130,180z"/>
<path class="st0" d="M150,180L150,180c-5.5,0-10-4.5-10-10l0,0c0-5.5,4.5-10,10-10l0,0c5.5,0,10,4.5,10,10l0,0
	C160,175.5,155.5,180,150,180z"/>
<path class="st0" d="M170,180L170,180c-5.5,0-10-4.5-10-10l0,0c0-5.5,4.5-10,10-10l0,0c5.5,0,10,4.5,10,10l0,0
	C180,175.5,175.5,180,170,180z"/>
<rect x="180" y="160" class="st0" width="20" height="20"/>
<rect x="200" y="160" class="st0" width="20" height="20"/>
<path class="st0" d="M230,180L230,180c-5.5,0-10-4.5-10-10l0,0c0-5.5,4.5-10,10-10l0,0c5.5,0,10,4.5,10,10l0,0
	C240,175.5,235.5,180,230,180z"/>
<path class="st0" d="M250,180L250,180c-5.5,0-10-4.5-10-10l0,0c0-5.5,4.5-10,10-10l0,0c5.5,0,10,4.5,10,10l0,0
	C260,175.5,255.5,180,250,180z"/>
<path class="st0" d="M270,180L270,180c-5.5,0-10-4.5-10-10l0,0c0-5.5,4.5-10,10-10l0,0c5.5,0,10,4.5,10,10l0,0
	C280,175.5,275.5,180,270,180z"/>
<path class="st0" d="M290,180L290,180c-5.5,0-10-4.5-10-10l0,0c0-5.5,4.5-10,10-10l0,0c5.5,0,10,4.5,10,10l0,0
	C300,175.5,295.5,180,290,180z"/>
<rect x="300" y="160" class="st0" width="20" height="20"/>
<path class="st0" d="M330,180L330,180c-5.5,0-10-4.5-10-10l0,0c0-5.5,4.5-10,10-10l0,0c5.5,0,10,4.5,10,10l0,0
	C340,175.5,335.5,180,330,180z"/>
<rect x="340" y="160" class="st0" width="20" height="20"/>
<rect x="360" y="160" class="st0" width="20" height="20"/>
<rect x="380" y="160" class="st0" width="20" height="20"/>
<rect y="180" class="st0" width="20" height="20"/>
<path class="st0" d="M30,200L30,200c-5.5,0-10-4.5-10-10l0,0c0-5.5,4.5-10,10-10l0,0c5.5,0,10,4.5,10,10l0,0
	C40,195.5,35.5,200,30,200z"/>
<path class="st0" d="M50,200L50,200c-5.5,0-10-4.5-10-10l0,0c0-5.5,4.5-10,10-10l0,0c5.5,0,10,4.5,10,10l0,0
	C60,195.5,55.5,200,50,200z"/>
<path class="st0" d="M70,200L70,200c-5.5,0-10-4.5-10-10l0,0c0-5.5,4.5-10,10-10l0,0c5.5,0,10,4.5,10,10l0,0
	C80,195.5,75.5,200,70,200z"/>
<path class="st0" d="M90,200L90,200c-5.5,0-10-4.5-10-10l0,0c0-5.5,4.5-10,10-10l0,0c5.5,0,10,4.5,10,10l0,0
	C100,195.5,95.5,200,90,200z"/>
<rect x="100" y="180" class="st0" width="20" height="20"/>
<path class="st0" d="M130,200L130,200c-5.5,0-10-4.5-10-10l0,0c0-5.5,4.5-10,10-10l0,0c5.5,0,10,4.5,10,10l0,0
	C140,195.5,135.5,200,130,200z"/>
<rect x="140" y="180" class="st0" width="20" height="20"/>
<path class="st0" d="M170,200L170,200c-5.5,0-10-4.5-10-10l0,0c0-5.5,4.5-10,10-10l0,0c5.5,0,10,4.5,10,10l0,0
	C180,195.5,175.5,200,170,200z"/>
<rect x="180" y="180" class="st0" width="20" height="20"/>
<rect x="200" y="180" class="st0" width="20" height="20"/>
<path class="st0" d="M230,200L230,200c-5.5,0-10-4.5-10-10l0,0c0-5.5,4.5-10,10-10l0,0c5.5,0,10,4.5,10,10l0,0
	C240,195.5,235.5,200,230,200z"/>
<rect x="240" y="180" class="st0" width="20" height="20"/>
<rect x="260" y="180" class="st0" width="20" height="20"/>
<rect x="280" y="180" class="st0" width="20" height="20"/>
<rect x="300" y="180" class="st0" width="20" height="20"/>
<path class="st0" d="M330,200L330,200c-5.5,0-10-4.5-10-10l0,0c0-5.5,4.5-10,10-10l0,0c5.5,0,10,4.5,10,10l0,0
	C340,195.5,335.5,200,330,200z"/>
<rect x="340" y="180" class="st0" width="20" height="20"/>
<rect x="360" y="180" class="st0" width="20" height="20"/>
<rect x="380" y="180" class="st0" width="20" height="20"/>
<rect y="200" class="st0" width="20" height="20"/>
<path class="st0" d="M30,220L30,220c-5.5,0-10-4.5-10-10l0,0c0-5.5,4.5-10,10-10l0,0c5.5,0,10,4.5,10,10l0,0
	C40,215.5,35.5,220,30,220z"/>
<rect x="40" y="200" class="st0" width="20" height="20"/>
<rect x="60" y="200" class="st0" width="20" height="20"/>
<rect x="80" y="200" class="st0" width="20" height="20"/>
<rect x="100" y="200" class="st0" width="20" height="20"/>
<path class="st0" d="M130,220L130,220c-5.5,0-10-4.5-10-10l0,0c0-5.5,4.5-10,10-10l0,0c5.5,0,10,4.5,10,10l0,0
	C140,215.5,135.5,220,130,220z"/>
<rect x="140" y="200" class="st0" width="20" height="20"/>
<path class="st0" d="M170,220L170,220c-5.5,0-10-4.5-10-10l0,0c0-5.5,4.5-10,10-10l0,0c5.5,0,10,4.5,10,10l0,0
	C180,215.5,175.5,220,170,220z"/>
<path class="st0" d="M190,220L190,220c-5.5,0-10-4.5-10-10l0,0c0-5.5,4.5-10,10-10l0,0c5.5,0,10,4.5,10,10l0,0
	C200,215.5,195.5,220,190,220z"/>
<rect x="200" y="200" class="st0" width="20" height="20"/>
<path class="st0" d="M230,220L230,220c-5.5,0-10-4.5-10-10l0,0c0-5.5,4.5-10,10-10l0,0c5.5,0,10,4.5,10,10l0,0
	C240,215.5,235.5,220,230,220z"/>
<rect x="240" y="200" class="st0" width="20" height="20"/>
<path class="st0" d="M270,220L270,220c-5.5,0-10-4.5-10-10l0,0c0-5.5,4.5-10,10-10l0,0c5.5,0,10,4.5,10,10l0,0
	C280,215.5,275.5,220,270,220z"/>
<path class="st0" d="M290,220L290,220c-5.5,0-10-4.5-10-10l0,0c0-5.5,4.5-10,10-10l0,0c5.5,0,10,4.5,10,10l0,0
	C300,215.5,295.5,220,290,220z"/>
<path class="st0" d="M310,220L310,220c-5.5,0-10-4.5-10-10l0,0c0-5.5,4.5-10,10-10l0,0c5.5,0,10,4.5,10,10l0,0
	C320,215.5,315.5,220,310,220z"/>
<path class="st0" d="M330,220L330,220c-5.5,0-10-4.5-10-10l0,0c0-5.5,4.5-10,10-10l0,0c5.5,0,10,4.5,10,10l0,0
	C340,215.5,335.5,220,330,220z"/>
<rect x="340" y="200" class="st0" width="20" height="20"/>
<rect x="360" y="200" class="st0" width="20" height="20"/>
<rect x="380" y="200" class="st0" width="20" height="20"/>
<rect y="220" class="st0" width="20" height="20"/>
<path class="st0" d="M30,240L30,240c-5.5,0-10-4.5-10-10l0,0c0-5.5,4.5-10,10-10l0,0c5.5,0,10,4.5,10,10l0,0
	C40,235.5,35.5,240,30,240z"/>
<path class="st0" d="M50,240L50,240c-5.5,0-10-4.5-10-10l0,0c0-5.5,4.5-10,10-10l0,0c5.5,0,10,4.5,10,10l0,0
	C60,235.5,55.5,240,50,240z"/>
<path class="st0" d="M70,240L70,240c-5.5,0-10-4.5-10-10l0,0c0-5.5,4.5-10,10-10l0,0c5.5,0,10,4.5,10,10l0,0
	C80,235.5,75.5,240,70,240z"/>
<path class="st0" d="M90,240L90,240c-5.5,0-10-4.5-10-10l0,0c0-5.5,4.5-10,10-10l0,0c5.5,0,10,4.5,10,10l0,0
	C100,235.5,95.5,240,90,240z"/>
<path class="st0" d="M110,240L110,240c-5.5,0-10-4.5-10-10l0,0c0-5.5,4.5-10,10-10l0,0c5.5,0,10,4.5,10,10l0,0
	C120,235.5,115.5,240,110,240z"/>
<path class="st0" d="M130,240L130,240c-5.5,0-10-4.5-10-10l0,0c0-5.5,4.5-10,10-10l0,0c5.5,0,10,4.5,10,10l0,0
	C140,235.5,135.5,240,130,240z"/>
<rect x="140" y="220" class="st0" width="20" height="20"/>
<rect x="160" y="220" class="st0" width="20" height="20"/>
<path class="st0" d="M190,240L190,240c-5.5,0-10-4.5-10-10l0,0c0-5.5,4.5-10,10-10l0,0c5.5,0,10,4.5,10,10l0,0
	C200,235.5,195.5,240,190,240z"/>
<rect x="200" y="220" class="st0" width="20" height="20"/>
<path class="st0" d="M230,240L230,240c-5.5,0-10-4.5-10-10l0,0c0-5.5,4.5-10,10-10l0,0c5.5,0,10,4.5,10,10l0,0
	C240,235.5,235.5,240,230,240z"/>
<rect x="240" y="220" class="st0" width="20" height="20"/>
<path class="st0" d="M270,240L270,240c-5.5,0-10-4.5-10-10l0,0c0-5.5,4.5-10,10-10l0,0c5.5,0,10,4.5,10,10l0,0
	C280,235.5,275.5,240,270,240z"/>
<rect x="280" y="220" class="st0" width="20" height="20"/>
<rect x="300" y="220" class="st0" width="20" height="20"/>
<rect x="320" y="220" class="st0" width="20" height="20"/>
<rect x="340" y="220" class="st0" width="20" height="20"/>
<rect x="360" y="220" class="st0" width="20" height="20"/>
<rect x="380" y="220" class="st0" width="20" height="20"/>
<rect y="240" class="st0" width="20" height="20"/>
<rect x="20" y="240" class="st0" width="20" height="20"/>
<rect x="40" y="240" class="st0" width="20" height="20"/>
<rect x="60" y="240" class="st0" width="20" height="20"/>
<rect x="80" y="240" class="st0" width="20" height="20"/>
<rect x="100" y="240" class="st0" width="20" height="20"/>
<rect x="120" y="240" class="st0" width="20" height="20"/>
<rect x="140" y="240" class="st0" width="20" height="20"/>
<rect x="160" y="240" class="st0" width="20" height="20"/>
<path class="st0" d="M190,260L190,260c-5.5,0-10-4.5-10-10l0,0c0-5.5,4.5-10,10-10l0,0c5.5,0,10,4.5,10,10l0,0
	C200,255.5,195.5,260,190,260z"/>
<rect x="200" y="240" class="st0" width="20" height="20"/>
<path class="st0" d="M230,260L230,260c-5.5,0-10-4.5-10-10l0,0c0-5.5,4.5-10,10-10l0,0c5.5,0,10,4.5,10,10l0,0
	C240,255.5,235.5,260,230,260z"/>
<rect x="240" y="240" class="st0" width="20" height="20"/>
<path class="st0" d="M270,260L270,260c-5.5,0-10-4.5-10-10l0,0c0-5.5,4.5-10,10-10l0,0c5.5,0,10,4.5,10,10l0,0
	C280,255.5,275.5,260,270,260z"/>
<rect x="280" y="240" class="st0" width="20" height="20"/>
<rect x="300" y="240" class="st0" width="20" height="20"/>
<path class="st0" d="M330,260L330,260c-5.5,0-10-4.5-10-10l0,0c0-5.5,4.5-10,10-10l0,0c5.5,0,10,4.5,10,10l0,0
	C340,255.5,335.5,260,330,260z"/>
<path class="st0" d="M350,260L350,260c-5.5,0-10-4.5-10-10l0,0c0-5.5,4.5-10,10-10l0,0c5.5,0,10,4.5,10,10l0,0
	C360,255.5,355.5,260,350,260z"/>
<path class="st0" d="M370,260L370,260c-5.5,0-10-4.5-10-10l0,0c0-5.5,4.5-10,10-10l0,0c5.5,0,10,4.5,10,10l0,0
	C380,255.5,375.5,260,370,260z"/>
<rect x="380" y="240" class="st0" width="20" height="20"/>
<rect y="260" class="st0" width="20" height="20"/>
<rect x="20" y="260" class="st0" width="20" height="20"/>
<rect x="40" y="260" class="st0" width="20" height="20"/>
<path class="st0" d="M70,280L70,280c-5.5,0-10-4.5-10-10l0,0c0-5.5,4.5-10,10-10l0,0c5.5,0,10,4.5,10,10l0,0
	C80,275.5,75.5,280,70,280z"/>
<path class="st0" d="M90,280L90,280c-5.5,0-10-4.5-10-10l0,0c0-5.5,4.5-10,10-10l0,0c5.5,0,10,4.5,10,10l0,0
	C100,275.5,95.5,280,90,280z"/>
<path class="st0" d="M110,280L110,280c-5.5,0-10-4.5-10-10l0,0c0-5.5,4.5-10,10-10l0,0c5.5,0,10,4.5,10,10l0,0
	C120,275.5,115.5,280,110,280z"/>
<rect x="120" y="260" class="st0" width="20" height="20"/>
<path class="st0" d="M150,280L150,280c-5.5,0-10-4.5-10-10l0,0c0-5.5,4.5-10,10-10l0,0c5.5,0,10,4.5,10,10l0,0
	C160,275.5,155.5,280,150,280z"/>
<path class="st0" d="M170,280L170,280c-5.5,0-10-4.5-10-10l0,0c0-5.5,4.5-10,10-10l0,0c5.5,0,10,4.5,10,10l0,0
	C180,275.5,175.5,280,170,280z"/>
<path class="st0" d="M190,280L190,280c-5.5,0-10-4.5-10-10l0,0c0-5.5,4.5-10,10-10l0,0c5.5,0,10,4.5,10,10l0,0
	C200,275.5,195.5,280,190,280z"/>
<rect x="200" y="260" class="st0" width="20" height="20"/>
<path class="st0" d="M230,280L230,280c-5.5,0-10-4.5-10-10l0,0c0-5.5,4.5-10,10-10l0,0c5.5,0,10,4.5,10,10l0,0
	C240,275.5,235.5,280,230,280z"/>
<rect x="240" y="260" class="st0" width="20" height="20"/>
<path class="st0" d="M270,280L270,280c-5.5,0-10-4.5-10-10l0,0c0-5.5,4.5-10,10-10l0,0c5.5,0,10,4.5,10,10l0,0
	C280,275.5,275.5,280,270,280z"/>
<rect x="280" y="260" class="st0" width="20" height="20"/>
<rect x="300" y="260" class="st0" width="20" height="20"/>
<path class="st0" d="M330,280L330,280c-5.5,0-10-4.5-10-10l0,0c0-5.5,4.5-10,10-10l0,0c5.5,0,10,4.5,10,10l0,0
	C340,275.5,335.5,280,330,280z"/>
<rect x="340" y="260" class="st0" width="20" height="20"/>
<path class="st0" d="M370,280L370,280c-5.5,0-10-4.5-10-10l0,0c0-5.5,4.5-10,10-10l0,0c5.5,0,10,4.5,10,10l0,0
	C380,275.5,375.5,280,370,280z"/>
<rect x="380" y="260" class="st0" width="20" height="20"/>
<rect y="280" class="st0" width="20" height="20"/>
<path class="st0" d="M30,300L30,300c-5.5,0-10-4.5-10-10l0,0c0-5.5,4.5-10,10-10l0,0c5.5,0,10,4.5,10,10l0,0
	C40,295.5,35.5,300,30,300z"/>
<path class="st0" d="M50,300L50,300c-5.5,0-10-4.5-10-10l0,0c0-5.5,4.5-10,10-10l0,0c5.5,0,10,4.5,10,10l0,0
	C60,295.5,55.5,300,50,300z"/>
<path class="st0" d="M70,300L70,300c-5.5,0-10-4.5-10-10l0,0c0-5.5,4.5-10,10-10l0,0c5.5,0,10,4.5,10,10l0,0
	C80,295.5,75.5,300,70,300z"/>
<rect x="80" y="280" class="st0" width="20" height="20"/>
<path class="st0" d="M110,300L110,300c-5.5,0-10-4.5-10-10l0,0c0-5.5,4.5-10,10-10l0,0c5.5,0,10,4.5,10,10l0,0
	C120,295.5,115.5,300,110,300z"/>
<path class="st0" d="M130,300L130,300c-5.5,0-10-4.5-10-10l0,0c0-5.5,4.5-10,10-10l0,0c5.5,0,10,4.5,10,10l0,0
	C140,295.5,135.5,300,130,300z"/>
<path class="st0" d="M150,300L150,300c-5.5,0-10-4.5-10-10l0,0c0-5.5,4.5-10,10-10l0,0c5.5,0,10,4.5,10,10l0,0
	C160,295.5,155.5,300,150,300z"/>
<rect x="160" y="280" class="st0" width="20" height="20"/>
<rect x="180" y="280" class="st0" width="20" height="20"/>
<path class="st0" d="M210,300L210,300c-5.5,0-10-4.5-10-10l0,0c0-5.5,4.5-10,10-10l0,0c5.5,0,10,4.5,10,10l0,0
	C220,295.5,215.5,300,210,300z"/>
<path class="st0" d="M230,300L230,300c-5.5,0-10-4.5-10-10l0,0c0-5.5,4.5-10,10-10l0,0c5.5,0,10,4.5,10,10l0,0
	C240,295.5,235.5,300,230,300z"/>
<rect x="240" y="280" class="st0" width="20" height="20"/>
<path class="st0" d="M270,300L270,300c-5.5,0-10-4.5-10-10l0,0c0-5.5,4.5-10,10-10l0,0c5.5,0,10,4.5,10,10l0,0
	C280,295.5,275.5,300,270,300z"/>
<rect x="280" y="280" class="st0" width="20" height="20"/>
<rect x="300" y="280" class="st0" width="20" height="20"/>
<path class="st0" d="M330,300L330,300c-5.5,0-10-4.5-10-10l0,0c0-5.5,4.5-10,10-10l0,0c5.5,0,10,4.5,10,10l0,0
	C340,295.5,335.5,300,330,300z"/>
<rect x="340" y="280" class="st0" width="20" height="20"/>
<path class="st0" d="M370,300L370,300c-5.5,0-10-4.5-10-10l0,0c0-5.5,4.5-10,10-10l0,0c5.5,0,10,4.5,10,10l0,0
	C380,295.5,375.5,300,370,300z"/>
<rect x="380" y="280" class="st0" width="20" height="20"/>
<rect y="300" class="st0" width="20" height="20"/>
<path class="st0" d="M30,320L30,320c-5.5,0-10-4.5-10-10l0,0c0-5.5,4.5-10,10-10l0,0c5.5,0,10,4.5,10,10l0,0
	C40,315.5,35.5,320,30,320z"/>
<rect x="40" y="300" class="st0" width="20" height="20"/>
<rect x="60" y="300" class="st0" width="20" height="20"/>
<rect x="80" y="300" class="st0" width="20" height="20"/>
<rect x="100" y="300" class="st0" width="20" height="20"/>
<rect x="120" y="300" class="st0" width="20" height="20"/>
<rect x="140" y="300" class="st0" width="20" height="20"/>
<path class="st0" d="M170,320L170,320c-5.5,0-10-4.5-10-10l0,0c0-5.5,4.5-10,10-10l0,0c5.5,0,10,4.5,10,10l0,0
	C180,315.5,175.5,320,170,320z"/>
<path class="st0" d="M190,320L190,320c-5.5,0-10-4.5-10-10l0,0c0-5.5,4.5-10,10-10l0,0c5.5,0,10,4.5,10,10l0,0
	C200,315.5,195.5,320,190,320z"/>
<path class="st0" d="M210,320L210,320c-5.5,0-10-4.5-10-10l0,0c0-5.5,4.5-10,10-10l0,0c5.5,0,10,4.5,10,10l0,0
	C220,315.5,215.5,320,210,320z"/>
<rect x="220" y="300" class="st0" width="20" height="20"/>
<path class="st0" d="M250,320L250,320c-5.5,0-10-4.5-10-10l0,0c0-5.5,4.5-10,10-10l0,0c5.5,0,10,4.5,10,10l0,0
	C260,315.5,255.5,320,250,320z"/>
<path class="st0" d="M270,320L270,320c-5.5,0-10-4.5-10-10l0,0c0-5.5,4.5-10,10-10l0,0c5.5,0,10,4.5,10,10l0,0
	C280,315.5,275.5,320,270,320z"/>
<rect x="280" y="300" class="st0" width="20" height="20"/>
<rect x="300" y="300" class="st0" width="20" height="20"/>
<path class="st0" d="M330,320L330,320c-5.5,0-10-4.5-10-10l0,0c0-5.5,4.5-10,10-10l0,0c5.5,0,10,4.5,10,10l0,0
	C340,315.5,335.5,320,330,320z"/>
<rect x="340" y="300" class="st0" width="20" height="20"/>
<path class="st0" d="M370,320L370,320c-5.5,0-10-4.5-10-10l0,0c0-5.5,4.5-10,10-10l0,0c5.5,0,10,4.5,10,10l0,0
	C380,315.5,375.5,320,370,320z"/>
<rect x="380" y="300" class="st0" width="20" height="20"/>
<rect y="320" class="st0" width="20" height="20"/>
<path class="st0" d="M30,340L30,340c-5.5,0-10-4.5-10-10l0,0c0-5.5,4.5-10,10-10l0,0c5.5,0,10,4.5,10,10l0,0
	C40,335.5,35.5,340,30,340z"/>
<path class="st0" d="M50,340L50,340c-5.5,0-10-4.5-10-10l0,0c0-5.5,4.5-10,10-10l0,0c5.5,0,10,4.5,10,10l0,0
	C60,335.5,55.5,340,50,340z"/>
<path class="st0" d="M70,340L70,340c-5.5,0-10-4.5-10-10l0,0c0-5.5,4.5-10,10-10l0,0c5.5,0,10,4.5,10,10l0,0
	C80,335.5,75.5,340,70,340z"/>
<rect x="80" y="320" class="st0" width="20" height="20"/>
<path class="st0" d="M110,340L110,340c-5.5,0-10-4.5-10-10l0,0c0-5.5,4.5-10,10-10l0,0c5.5,0,10,4.5,10,10l0,0
	C120,335.5,115.5,340,110,340z"/>
<path class="st0" d="M130,340L130,340c-5.5,0-10-4.5-10-10l0,0c0-5.5,4.5-10,10-10l0,0c5.5,0,10,4.5,10,10l0,0
	C140,335.5,135.5,340,130,340z"/>
<path class="st0" d="M150,340L150,340c-5.5,0-10-4.5-10-10l0,0c0-5.5,4.5-10,10-10l0,0c5.5,0,10,4.5,10,10l0,0
	C160,335.5,155.5,340,150,340z"/>
<path class="st0" d="M170,340L170,340c-5.5,0-10-4.5-10-10l0,0c0-5.5,4.5-10,10-10l0,0c5.5,0,10,4.5,10,10l0,0
	C180,335.5,175.5,340,170,340z"/>
<rect x="180" y="320" class="st0" width="20" height="20"/>
<rect x="200" y="320" class="st0" width="20" height="20"/>
<path class="st0" d="M230,340L230,340c-5.5,0-10-4.5-10-10l0,0c0-5.5,4.5-10,10-10l0,0c5.5,0,10,4.5,10,10l0,0
	C240,335.5,235.5,340,230,340z"/>
<path class="st0" d="M250,340L250,340c-5.5,0-10-4.5-10-10l0,0c0-5.5,4.5-10,10-10l0,0c5.5,0,10,4.5,10,10l0,0
	C260,335.5,255.5,340,250,340z"/>
<rect x="260" y="320" class="st0" width="20" height="20"/>
<path class="st0" d="M290,340L290,340c-5.5,0-10-4.5-10-10l0,0c0-5.5,4.5-10,10-10l0,0c5.5,0,10,4.5,10,10l0,0
	C300,335.5,295.5,340,290,340z"/>
<path class="st0" d="M310,340L310,340c-5.5,0-10-4.5-10-10l0,0c0-5.5,4.5-10,10-10l0,0c5.5,0,10,4.5,10,10l0,0
	C320,335.5,315.5,340,310,340z"/>
<path class="st0" d="M330,340L330,340c-5.5,0-10-4.5-10-10l0,0c0-5.5,4.5-10,10-10l0,0c5.5,0,10,4.5,10,10l0,0
	C340,335.5,335.5,340,330,340z"/>
<rect x="340" y="320" class="st0" width="20" height="20"/>
<path class="st0" d="M370,340L370,340c-5.5,0-10-4.5-10-10l0,0c0-5.5,4.5-10,10-10l0,0c5.5,0,10,4.5,10,10l0,0
	C380,335.5,375.5,340,370,340z"/>
<rect x="380" y="320" class="st0" width="20" height="20"/>
<rect y="340" class="st0" width="20" height="20"/>
<rect x="20" y="340" class="st0" width="20" height="20"/>
<rect x="40" y="340" class="st0" width="20" height="20"/>
<path class="st0" d="M70,360L70,360c-5.5,0-10-4.5-10-10l0,0c0-5.5,4.5-10,10-10l0,0c5.5,0,10,4.5,10,10l0,0
	C80,355.5,75.5,360,70,360z"/>
<rect x="80" y="340" class="st0" width="20" height="20"/>
<path class="st0" d="M110,360L110,360c-5.5,0-10-4.5-10-10l0,0c0-5.5,4.5-10,10-10l0,0c5.5,0,10,4.5,10,10l0,0
	C120,355.5,115.5,360,110,360z"/>
<rect x="120" y="340" class="st0" width="20" height="20"/>
<rect x="140" y="340" class="st0" width="20" height="20"/>
<rect x="160" y="340" class="st0" width="20" height="20"/>
<rect x="180" y="340" class="st0" width="20" height="20"/>
<path class="st0" d="M210,360L210,360c-5.5,0-10-4.5-10-10l0,0c0-5.5,4.5-10,10-10l0,0c5.5,0,10,4.5,10,10l0,0
	C220,355.5,215.5,360,210,360z"/>
<path class="st0" d="M230,360L230,360c-5.5,0-10-4.5-10-10l0,0c0-5.5,4.5-10,10-10l0,0c5.5,0,10,4.5,10,10l0,0
	C240,355.5,235.5,360,230,360z"/>
<rect x="240" y="340" class="st0" width="20" height="20"/>
<rect x="260" y="340" class="st0" width="20" height="20"/>
<path class="st0" d="M290,360L290,360c-5.5,0-10-4.5-10-10l0,0c0-5.5,4.5-10,10-10l0,0c5.5,0,10,4.5,10,10l0,0
	C300,355.5,295.5,360,290,360z"/>
<rect x="300" y="340" class="st0" width="20" height="20"/>
<rect x="320" y="340" class="st0" width="20" height="20"/>
<rect x="340" y="340" class="st0" width="20" height="20"/>
<path class="st0" d="M370,360L370,360c-5.5,0-10-4.5-10-10l0,0c0-5.5,4.5-10,10-10l0,0c5.5,0,10,4.5,10,10l0,0
	C380,355.5,375.5,360,370,360z"/>
<rect x="380" y="340" class="st0" width="20" height="20"/>
<rect y="360" class="st0" width="20" height="20"/>
<rect x="20" y="360" class="st0" width="20" height="20"/>
<rect x="40" y="360" class="st0" width="20" height="20"/>
<path class="st0" d="M70,380L70,380c-5.5,0-10-4.5-10-10l0,0c0-5.5,4.5-10,10-10l0,0c5.5,0,10,4.5,10,10l0,0
	C80,375.5,75.5,380,70,380z"/>
<path class="st0" d="M90,380L90,380c-5.5,0-10-4.5-10-10l0,0c0-5.5,4.5-10,10-10l0,0c5.5,0,10,4.5,10,10l0,0
	C100,375.5,95.5,380,90,380z"/>
<path class="st0" d="M110,380L110,380c-5.5,0-10-4.5-10-10l0,0c0-5.5,4.5-10,10-10l0,0c5.5,0,10,4.5,10,10l0,0
	C120,375.5,115.5,380,110,380z"/>
<rect x="120" y="360" class="st0" width="20" height="20"/>
<rect x="140" y="360" class="st0" width="20" height="20"/>
<rect x="160" y="360" class="st0" width="20" height="20"/>
<rect x="180" y="360" class="st0" width="20" height="20"/>
<rect x="200" y="360" class="st0" width="20" height="20"/>
<path class="st0" d="M230,380L230,380c-5.5,0-10-4.5-10-10l0,0c0-5.5,4.5-10,10-10l0,0c5.5,0,10,4.5,10,10l0,0
	C240,375.5,235.5,380,230,380z"/>
<path class="st0" d="M250,380L250,380c-5.5,0-10-4.5-10-10l0,0c0-5.5,4.5-10,10-10l0,0c5.5,0,10,4.5,10,10l0,0
	C260,375.5,255.5,380,250,380z"/>
<path class="st0" d="M270,380L270,380c-5.5,0-10-4.5-10-10l0,0c0-5.5,4.5-10,10-10l0,0c5.5,0,10,4.5,10,10l0,0
	C280,375.5,275.5,380,270,380z"/>
<path class="st0" d="M290,380L290,380c-5.5,0-10-4.5-10-10l0,0c0-5.5,4.5-10,10-10l0,0c5.5,0,10,4.5,10,10l0,0
	C300,375.5,295.5,380,290,380z"/>
<rect x="300" y="360" class="st0" width="20" height="20"/>
<rect x="320" y="360" class="st0" width="20" height="20"/>
<rect x="340" y="360" class="st0" width="20" height="20"/>
<path class="st0" d="M370,380L370,380c-5.5,0-10-4.5-10-10l0,0c0-5.5,4.5-10,10-10l0,0c5.5,0,10,4.5,10,10l0,0
	C380,375.5,375.5,380,370,380z"/>
<rect x="380" y="360" class="st0" width="20" height="20"/>
<rect y="380" class="st0" width="20" height="20"/>
<rect x="20" y="380" class="st0" width="20" height="20"/>
<rect x="40" y="380" class="st0" width="20" height="20"/>
<rect x="60" y="380" class="st0" width="20" height="20"/>
<rect x="80" y="380" class="st0" width="20" height="20"/>
<rect x="100" y="380" class="st0" width="20" height="20"/>
<rect x="120" y="380" class="st0" width="20" height="20"/>
<rect x="140" y="380" class="st0" width="20" height="20"/>
<rect x="160" y="380" class="st0" width="20" height="20"/>
<rect x="180" y="380" class="st0" width="20" height="20"/>
<rect x="200" y="380" class="st0" width="20" height="20"/>
<rect x="220" y="380" class="st0" width="20" height="20"/>
<rect x="240" y="380" class="st0" width="20" height="20"/>
<rect x="260" y="380" class="st0" width="20" height="20"/>
<rect x="280" y="380" class="st0" width="20" height="20"/>
<rect x="300" y="380" class="st0" width="20" height="20"/>
<rect x="320" y="380" class="st0" width="20" height="20"/>
<rect x="340" y="380" class="st0" width="20" height="20"/>
<path id="star" class="st0" d="M370,400L370,400c-5.5,0-10-4.5-10-10l0,0c0-5.5,4.5-10,10-10l0,0c5.5,0,10,4.5,10,10l0,0
	C380,395.5,375.5,400,370,400z"/>
<rect x="380" y="380" class="st0" width="20" height="20"/>
</svg>
