{
  "accessors": [
    {
      "name": "toilet-Mesh_0_positions",
      "componentType": 5126,
      "count": 204,
      "min": [
        63.8001823425293,
        0,
        -14.044824600219727
      ],
      "max": [
        72.03267669677734,
        2,
        -5.7472686767578125
      ],
      "type": "VEC3",
      "bufferView": 0,
      "byteOffset": 0
    },
    {
      "name": "toilet-Mesh_0_normals",
      "componentType": 5126,
      "count": 204,
      "min": [
        -0.9999873638153076,
        -1,
        -0.7411101460456848
      ],
      "max": [
        0.7411139607429504,
        1,
        0.9999988675117493
      ],
      "type": "VEC3",
      "bufferView": 1,
      "byteOffset": 0
    },
    {
      "name": "toilet-Mesh_0_texcoords",
      "componentType": 5126,
      "count": 204,
      "min": [
        0,
        0
      ],
      "max": [
        1,
        1
      ],
      "type": "VEC2",
      "bufferView": 2,
      "byteOffset": 0
    },
    {
      "name": "toilet-Mesh_0_indices",
      "componentType": 5123,
      "count": 528,
      "min": [
        0
      ],
      "max": [
        203
      ],
      "type": "SCALAR",
      "bufferView": 3,
      "byteOffset": 0
    },
    {
      "name": "elevator-Mesh_0_positions",
      "componentType": 5126,
      "count": 72,
      "min": [
        63.5617790222168,
        0,
        5.817340850830078
      ],
      "max": [
        72.2710189819336,
        2,
        14.587855339050293
      ],
      "type": "VEC3",
      "bufferView": 0,
      "byteOffset": 2448
    },
    {
      "name": "elevator-Mesh_0_normals",
      "componentType": 5126,
      "count": 72,
      "min": [
        -0.7455321550369263,
        -1,
        -0.7455183267593384
      ],
      "max": [
        0.7455922365188599,
        1,
        0.7455304265022278
      ],
      "type": "VEC3",
      "bufferView": 1,
      "byteOffset": 2448
    },
    {
      "name": "elevator-Mesh_0_texcoords",
      "componentType": 5126,
      "count": 72,
      "min": [
        0,
        0
      ],
      "max": [
        1,
        1
      ],
      "type": "VEC2",
      "bufferView": 2,
      "byteOffset": 1632
    },
    {
      "name": "elevator-Mesh_0_indices",
      "componentType": 5123,
      "count": 132,
      "min": [
        0
      ],
      "max": [
        71
      ],
      "type": "SCALAR",
      "bufferView": 3,
      "byteOffset": 1056
    },
    {
      "name": "toilet_1-Mesh_0_positions",
      "componentType": 5126,
      "count": 204,
      "min": [
        -71.13314819335938,
        0,
        -14.044824600219727
      ],
      "max": [
        -62.90065002441406,
        2,
        -5.7472686767578125
      ],
      "type": "VEC3",
      "bufferView": 0,
      "byteOffset": 3312
    },
    {
      "name": "toilet_1-Mesh_0_normals",
      "componentType": 5126,
      "count": 204,
      "min": [
        -0.7411139607429504,
        -1,
        -0.7411101460456848
      ],
      "max": [
        0.9999873638153076,
        1,
        0.9999988675117493
      ],
      "type": "VEC3",
      "bufferView": 1,
      "byteOffset": 3312
    },
    {
      "name": "toilet_1-Mesh_0_texcoords",
      "componentType": 5126,
      "count": 204,
      "min": [
        0,
        0
      ],
      "max": [
        1,
        1
      ],
      "type": "VEC2",
      "bufferView": 2,
      "byteOffset": 2208
    },
    {
      "name": "toilet_1-Mesh_0_indices",
      "componentType": 5123,
      "count": 528,
      "min": [
        0
      ],
      "max": [
        203
      ],
      "type": "SCALAR",
      "bufferView": 3,
      "byteOffset": 1320
    },
    {
      "name": "elevator_1-Mesh_0_positions",
      "componentType": 5126,
      "count": 72,
      "min": [
        -71.3714828491211,
        0,
        5.817340850830078
      ],
      "max": [
        -62.66225051879883,
        2,
        14.587855339050293
      ],
      "type": "VEC3",
      "bufferView": 0,
      "byteOffset": 5760
    },
    {
      "name": "elevator_1-Mesh_0_normals",
      "componentType": 5126,
      "count": 72,
      "min": [
        -0.7455971240997314,
        -1,
        -0.7455183267593384
      ],
      "max": [
        0.7455322742462158,
        1,
        0.7455304265022278
      ],
      "type": "VEC3",
      "bufferView": 1,
      "byteOffset": 5760
    },
    {
      "name": "elevator_1-Mesh_0_texcoords",
      "componentType": 5126,
      "count": 72,
      "min": [
        0,
        0
      ],
      "max": [
        1,
        1
      ],
      "type": "VEC2",
      "bufferView": 2,
      "byteOffset": 3840
    },
    {
      "name": "elevator_1-Mesh_0_indices",
      "componentType": 5123,
      "count": 132,
      "min": [
        0
      ],
      "max": [
        71
      ],
      "type": "SCALAR",
      "bufferView": 3,
      "byteOffset": 2376
    },
    {
      "name": "escalator-Mesh_0_positions",
      "componentType": 5126,
      "count": 144,
      "min": [
        -9.70134449005127,
        0,
        -8.202083587646484
      ],
      "max": [
        9.61313247680664,
        2,
        8.202083587646484
      ],
      "type": "VEC3",
      "bufferView": 0,
      "byteOffset": 6624
    },
    {
      "name": "escalator-Mesh_0_normals",
      "componentType": 5126,
      "count": 144,
      "min": [
        -1,
        -1,
        -1
      ],
      "max": [
        1,
        1,
        1
      ],
      "type": "VEC3",
      "bufferView": 1,
      "byteOffset": 6624
    },
    {
      "name": "escalator-Mesh_0_texcoords",
      "componentType": 5126,
      "count": 144,
      "min": [
        0,
        0
      ],
      "max": [
        1,
        1
      ],
      "type": "VEC2",
      "bufferView": 2,
      "byteOffset": 4416
    },
    {
      "name": "escalator-Mesh_0_indices",
      "componentType": 5123,
      "count": 264,
      "min": [
        0
      ],
      "max": [
        143
      ],
      "type": "SCALAR",
      "bufferView": 3,
      "byteOffset": 2640
    },
    {
      "name": "floor-Mesh_0_positions",
      "componentType": 5126,
      "count": 304,
      "min": [
        -110.1107177734375,
        -2,
        -83.21145629882812
      ],
      "max": [
        110.02261352539062,
        0,
        83.21145629882812
      ],
      "type": "VEC3",
      "bufferView": 0,
      "byteOffset": 8352
    },
    {
      "name": "floor-Mesh_0_normals",
      "componentType": 5126,
      "count": 304,
      "min": [
        -1,
        -1,
        -1
      ],
      "max": [
        1,
        1,
        1
      ],
      "type": "VEC3",
      "bufferView": 1,
      "byteOffset": 8352
    },
    {
      "name": "floor-Mesh_0_texcoords",
      "componentType": 5126,
      "count": 304,
      "min": [
        0,
        0
      ],
      "max": [
        1,
        1
      ],
      "type": "VEC2",
      "bufferView": 2,
      "byteOffset": 5568
    },
    {
      "name": "floor-Mesh_0_indices",
      "componentType": 5123,
      "count": 852,
      "min": [
        0
      ],
      "max": [
        303
      ],
      "type": "SCALAR",
      "bufferView": 3,
      "byteOffset": 3168
    },
    {
      "name": "挤压-Mesh_0_positions",
      "componentType": 5126,
      "count": 438,
      "min": [
        -97.91061401367188,
        0,
        -71.01145935058594
      ],
      "max": [
        -62.16225051879883,
        3.5,
        -4.791666507720947
      ],
      "type": "VEC3",
      "bufferView": 0,
      "byteOffset": 12000
    },
    {
      "name": "挤压-Mesh_0_normals",
      "componentType": 5126,
      "count": 438,
      "min": [
        -1,
        -1,
        -1
      ],
      "max": [
        1,
        1,
        1
      ],
      "type": "VEC3",
      "bufferView": 1,
      "byteOffset": 12000
    },
    {
      "name": "挤压-Mesh_0_texcoords",
      "componentType": 5126,
      "count": 438,
      "min": [
        0,
        0
      ],
      "max": [
        1,
        1
      ],
      "type": "VEC2",
      "bufferView": 2,
      "byteOffset": 8000
    },
    {
      "name": "挤压-Mesh_0_indices",
      "componentType": 5123,
      "count": 1626,
      "min": [
        0
      ],
      "max": [
        437
      ],
      "type": "SCALAR",
      "bufferView": 3,
      "byteOffset": 4872
    },
    {
      "name": "挤压.6-Mesh_0_positions",
      "componentType": 5126,
      "count": 428,
      "min": [
        62.2503547668457,
        0,
        -71.01145935058594
      ],
      "max": [
        97.82271575927734,
        3.5,
        -4.791666507720947
      ],
      "type": "VEC3",
      "bufferView": 0,
      "byteOffset": 17256
    },
    {
      "name": "挤压.6-Mesh_0_normals",
      "componentType": 5126,
      "count": 428,
      "min": [
        -1,
        -1,
        -1
      ],
      "max": [
        1,
        1,
        1
      ],
      "type": "VEC3",
      "bufferView": 1,
      "byteOffset": 17256
    },
    {
      "name": "挤压.6-Mesh_0_texcoords",
      "componentType": 5126,
      "count": 428,
      "min": [
        0,
        0
      ],
      "max": [
        1,
        1
      ],
      "type": "VEC2",
      "bufferView": 2,
      "byteOffset": 11504
    },
    {
      "name": "挤压.6-Mesh_0_indices",
      "componentType": 5123,
      "count": 1584,
      "min": [
        0
      ],
      "max": [
        427
      ],
      "type": "SCALAR",
      "bufferView": 3,
      "byteOffset": 8124
    },
    {
      "name": "挤压.7-Mesh_0_positions",
      "componentType": 5126,
      "count": 428,
      "min": [
        -55.63623046875,
        0,
        4.791666507720947
      ],
      "max": [
        -4.835825443267822,
        3.5,
        71.01145935058594
      ],
      "type": "VEC3",
      "bufferView": 0,
      "byteOffset": 22392
    },
    {
      "name": "挤压.7-Mesh_0_normals",
      "componentType": 5126,
      "count": 428,
      "min": [
        -1,
        -1,
        -1
      ],
      "max": [
        1,
        1,
        1
      ],
      "type": "VEC3",
      "bufferView": 1,
      "byteOffset": 22392
    },
    {
      "name": "挤压.7-Mesh_0_texcoords",
      "componentType": 5126,
      "count": 428,
      "min": [
        0,
        0
      ],
      "max": [
        1,
        1
      ],
      "type": "VEC2",
      "bufferView": 2,
      "byteOffset": 14928
    },
    {
      "name": "挤压.7-Mesh_0_indices",
      "componentType": 5123,
      "count": 1584,
      "min": [
        0
      ],
      "max": [
        427
      ],
      "type": "SCALAR",
      "bufferView": 3,
      "byteOffset": 11292
    },
    {
      "name": "挤压.1-Mesh_0_positions",
      "componentType": 5126,
      "count": 420,
      "min": [
        -55.63623046875,
        0,
        -71.01145935058594
      ],
      "max": [
        -4.835931301116943,
        3.5,
        -4.791666507720947
      ],
      "type": "VEC3",
      "bufferView": 0,
      "byteOffset": 27528
    },
    {
      "name": "挤压.1-Mesh_0_normals",
      "componentType": 5126,
      "count": 420,
      "min": [
        -1,
        -1,
        -1
      ],
      "max": [
        1,
        1,
        1
      ],
      "type": "VEC3",
      "bufferView": 1,
      "byteOffset": 27528
    },
    {
      "name": "挤压.1-Mesh_0_texcoords",
      "componentType": 5126,
      "count": 420,
      "min": [
        0,
        0
      ],
      "max": [
        1,
        1
      ],
      "type": "VEC2",
      "bufferView": 2,
      "byteOffset": 18352
    },
    {
      "name": "挤压.1-Mesh_0_indices",
      "componentType": 5123,
      "count": 1584,
      "min": [
        0
      ],
      "max": [
        419
      ],
      "type": "SCALAR",
      "bufferView": 3,
      "byteOffset": 14460
    },
    {
      "name": "挤压.2-Mesh_0_positions",
      "componentType": 5126,
      "count": 420,
      "min": [
        4.747507572174072,
        0,
        4.791666507720947
      ],
      "max": [
        55.72444152832031,
        3.5,
        71.01145935058594
      ],
      "type": "VEC3",
      "bufferView": 0,
      "byteOffset": 32568
    },
    {
      "name": "挤压.2-Mesh_0_normals",
      "componentType": 5126,
      "count": 420,
      "min": [
        -1,
        -1,
        -1
      ],
      "max": [
        1,
        1,
        1
      ],
      "type": "VEC3",
      "bufferView": 1,
      "byteOffset": 32568
    },
    {
      "name": "挤压.2-Mesh_0_texcoords",
      "componentType": 5126,
      "count": 420,
      "min": [
        0,
        0
      ],
      "max": [
        1,
        1
      ],
      "type": "VEC2",
      "bufferView": 2,
      "byteOffset": 21712
    },
    {
      "name": "挤压.2-Mesh_0_indices",
      "componentType": 5123,
      "count": 1584,
      "min": [
        0
      ],
      "max": [
        419
      ],
      "type": "SCALAR",
      "bufferView": 3,
      "byteOffset": 17628
    },
    {
      "name": "挤压.3-Mesh_0_positions",
      "componentType": 5126,
      "count": 420,
      "min": [
        4.747401714324951,
        0,
        -71.01145935058594
      ],
      "max": [
        55.72444152832031,
        3.5,
        -4.791666507720947
      ],
      "type": "VEC3",
      "bufferView": 0,
      "byteOffset": 37608
    },
    {
      "name": "挤压.3-Mesh_0_normals",
      "componentType": 5126,
      "count": 420,
      "min": [
        -1,
        -1,
        -1
      ],
      "max": [
        1,
        1,
        1
      ],
      "type": "VEC3",
      "bufferView": 1,
      "byteOffset": 37608
    },
    {
      "name": "挤压.3-Mesh_0_texcoords",
      "componentType": 5126,
      "count": 420,
      "min": [
        0,
        0
      ],
      "max": [
        1,
        1
      ],
      "type": "VEC2",
      "bufferView": 2,
      "byteOffset": 25072
    },
    {
      "name": "挤压.3-Mesh_0_indices",
      "componentType": 5123,
      "count": 1584,
      "min": [
        0
      ],
      "max": [
        419
      ],
      "type": "SCALAR",
      "bufferView": 3,
      "byteOffset": 20796
    },
    {
      "name": "挤压.4-Mesh_0_positions",
      "componentType": 5126,
      "count": 428,
      "min": [
        -97.91082763671875,
        0,
        4.791666507720947
      ],
      "max": [
        -62.16225051879883,
        3.5,
        71.01145935058594
      ],
      "type": "VEC3",
      "bufferView": 0,
      "byteOffset": 42648
    },
    {
      "name": "挤压.4-Mesh_0_normals",
      "componentType": 5126,
      "count": 428,
      "min": [
        -1,
        -1,
        -1
      ],
      "max": [
        1,
        1,
        1
      ],
      "type": "VEC3",
      "bufferView": 1,
      "byteOffset": 42648
    },
    {
      "name": "挤压.4-Mesh_0_texcoords",
      "componentType": 5126,
      "count": 428,
      "min": [
        0,
        0
      ],
      "max": [
        1,
        1
      ],
      "type": "VEC2",
      "bufferView": 2,
      "byteOffset": 28432
    },
    {
      "name": "挤压.4-Mesh_0_indices",
      "componentType": 5123,
      "count": 1584,
      "min": [
        0
      ],
      "max": [
        427
      ],
      "type": "SCALAR",
      "bufferView": 3,
      "byteOffset": 23964
    },
    {
      "name": "挤压.8-Mesh_0_positions",
      "componentType": 5126,
      "count": 428,
      "min": [
        62.2503547668457,
        0,
        4.791666507720947
      ],
      "max": [
        97.822509765625,
        3.5,
        71.01145935058594
      ],
      "type": "VEC3",
      "bufferView": 0,
      "byteOffset": 47784
    },
    {
      "name": "挤压.8-Mesh_0_normals",
      "componentType": 5126,
      "count": 428,
      "min": [
        -1,
        -1,
        -1
      ],
      "max": [
        1,
        1,
        1
      ],
      "type": "VEC3",
      "bufferView": 1,
      "byteOffset": 47784
    },
    {
      "name": "挤压.8-Mesh_0_texcoords",
      "componentType": 5126,
      "count": 428,
      "min": [
        0,
        0
      ],
      "max": [
        1,
        1
      ],
      "type": "VEC2",
      "bufferView": 2,
      "byteOffset": 31856
    },
    {
      "name": "挤压.8-Mesh_0_indices",
      "componentType": 5123,
      "count": 1584,
      "min": [
        0
      ],
      "max": [
        427
      ],
      "type": "SCALAR",
      "bufferView": 3,
      "byteOffset": 27132
    }
  ],
  "asset": {
    "generator": "obj2gltf",
    "version": "2.0"
  },
  "buffers": [
    {
      "name": "F1",
      "byteLength": 171420,
      "uri": "data:application/octet-stream;base64,"
    }
  ],
  "bufferViews": [
    {
      "name": "bufferView_0",
      "buffer": 0,
      "byteLength": 52920,
      "byteOffset": 0,
      "byteStride": 12,
      "target": 34962
    },
    {
      "name": "bufferView_1",
      "buffer": 0,
      "byteLength": 52920,
      "byteOffset": 52920,
      "byteStride": 12,
      "target": 34962
    },
    {
      "name": "bufferView_2",
      "buffer": 0,
      "byteLength": 35280,
      "byteOffset": 105840,
      "byteStride": 8,
      "target": 34962
    },
    {
      "name": "bufferView_3",
      "buffer": 0,
      "byteLength": 30300,
      "byteOffset": 141120,
      "target": 34963
    }
  ],
  "materials": [
    {
      "name": "default",
      "pbrMetallicRoughness": {
        "baseColorFactor": [
          0.5,
          0.5,
          0.5,
          1
        ],
        "metallicFactor": 0,
        "roughnessFactor": 1
      },
      "emissiveFactor": [
        0,
        0,
        0
      ],
      "alphaMode": "OPAQUE",
      "doubleSided": false
    }
  ],
  "meshes": [
    {
      "name": "toilet-Mesh",
      "primitives": [
        {
          "attributes": {
            "POSITION": 0,
            "NORMAL": 1,
            "TEXCOORD_0": 2
          },
          "indices": 3,
          "material": 0,
          "mode": 4
        }
      ]
    },
    {
      "name": "elevator-Mesh",
      "primitives": [
        {
          "attributes": {
            "POSITION": 4,
            "NORMAL": 5,
            "TEXCOORD_0": 6
          },
          "indices": 7,
          "material": 0,
          "mode": 4
        }
      ]
    },
    {
      "name": "toilet_1-Mesh",
      "primitives": [
        {
          "attributes": {
            "POSITION": 8,
            "NORMAL": 9,
            "TEXCOORD_0": 10
          },
          "indices": 11,
          "material": 0,
          "mode": 4
        }
      ]
    },
    {
      "name": "elevator_1-Mesh",
      "primitives": [
        {
          "attributes": {
            "POSITION": 12,
            "NORMAL": 13,
            "TEXCOORD_0": 14
          },
          "indices": 15,
          "material": 0,
          "mode": 4
        }
      ]
    },
    {
      "name": "escalator-Mesh",
      "primitives": [
        {
          "attributes": {
            "POSITION": 16,
            "NORMAL": 17,
            "TEXCOORD_0": 18
          },
          "indices": 19,
          "material": 0,
          "mode": 4
        }
      ]
    },
    {
      "name": "floor-Mesh",
      "primitives": [
        {
          "attributes": {
            "POSITION": 20,
            "NORMAL": 21,
            "TEXCOORD_0": 22
          },
          "indices": 23,
          "material": 0,
          "mode": 4
        }
      ]
    },
    {
      "name": "挤压-Mesh",
      "primitives": [
        {
          "attributes": {
            "POSITION": 24,
            "NORMAL": 25,
            "TEXCOORD_0": 26
          },
          "indices": 27,
          "material": 0,
          "mode": 4
        }
      ]
    },
    {
      "name": "挤压.6-Mesh",
      "primitives": [
        {
          "attributes": {
            "POSITION": 28,
            "NORMAL": 29,
            "TEXCOORD_0": 30
          },
          "indices": 31,
          "material": 0,
          "mode": 4
        }
      ]
    },
    {
      "name": "挤压.7-Mesh",
      "primitives": [
        {
          "attributes": {
            "POSITION": 32,
            "NORMAL": 33,
            "TEXCOORD_0": 34
          },
          "indices": 35,
          "material": 0,
          "mode": 4
        }
      ]
    },
    {
      "name": "挤压.1-Mesh",
      "primitives": [
        {
          "attributes": {
            "POSITION": 36,
            "NORMAL": 37,
            "TEXCOORD_0": 38
          },
          "indices": 39,
          "material": 0,
          "mode": 4
        }
      ]
    },
    {
      "name": "挤压.2-Mesh",
      "primitives": [
        {
          "attributes": {
            "POSITION": 40,
            "NORMAL": 41,
            "TEXCOORD_0": 42
          },
          "indices": 43,
          "material": 0,
          "mode": 4
        }
      ]
    },
    {
      "name": "挤压.3-Mesh",
      "primitives": [
        {
          "attributes": {
            "POSITION": 44,
            "NORMAL": 45,
            "TEXCOORD_0": 46
          },
          "indices": 47,
          "material": 0,
          "mode": 4
        }
      ]
    },
    {
      "name": "挤压.4-Mesh",
      "primitives": [
        {
          "attributes": {
            "POSITION": 48,
            "NORMAL": 49,
            "TEXCOORD_0": 50
          },
          "indices": 51,
          "material": 0,
          "mode": 4
        }
      ]
    },
    {
      "name": "挤压.8-Mesh",
      "primitives": [
        {
          "attributes": {
            "POSITION": 52,
            "NORMAL": 53,
            "TEXCOORD_0": 54
          },
          "indices": 55,
          "material": 0,
          "mode": 4
        }
      ]
    }
  ],
  "nodes": [
    {
      "name": "toilet",
      "mesh": 0
    },
    {
      "name": "elevator",
      "mesh": 1
    },
    {
      "name": "toilet_1",
      "mesh": 2
    },
    {
      "name": "elevator_1",
      "mesh": 3
    },
    {
      "name": "escalator",
      "mesh": 4
    },
    {
      "name": "floor",
      "mesh": 5
    },
    {
      "name": "挤压",
      "mesh": 6
    },
    {
      "name": "挤压.6",
      "mesh": 7
    },
    {
      "name": "挤压.7",
      "mesh": 8
    },
    {
      "name": "挤压.1",
      "mesh": 9
    },
    {
      "name": "挤压.2",
      "mesh": 10
    },
    {
      "name": "挤压.3",
      "mesh": 11
    },
    {
      "name": "挤压.4",
      "mesh": 12
    },
    {
      "name": "挤压.8",
      "mesh": 13
    }
  ],
  "scene": 0,
  "scenes": [
    {
      "nodes": [
        0,
        1,
        2,
        3,
        4,
        5,
        6,
        7,
        8,
        9,
        10,
        11,
        12,
        13
      ]
    }
  ]
}
